<svg xmlns="http://www.w3.org/2000/svg" xmlns:xlink="http://www.w3.org/1999/xlink" version="1.1" width="1000" height="1000" viewBox="0 0 1000 1000" xml:space="preserve">
<desc>Created with Fabric.js 3.5.0</desc>
<defs>
</defs>
<rect x="0" y="0" width="100%" height="100%" fill="none" />
<g transform="matrix(0.1728 0 0 0.1728 89.6913 910.3155)" id="218499">
<g style="" vector-effect="non-scaling-stroke">
		<g transform="matrix(1 0 0 1 8.7675 -153.6)" id="Layer_1">
<path style="stroke: none; stroke-width: 1; stroke-dasharray: none; stroke-linecap: butt; stroke-dashoffset: 0; stroke-linejoin: miter; stroke-miterlimit: 4; is-custom-font: none; font-file-url: none; fill: rgb(0,0,0); fill-rule: nonzero; opacity: 1;" transform=" translate(-264.7675, -102.4)" d="M 264.789 110.933 c 4.719 0 8.533 -3.823 8.533 -8.533 c 0 -4.71 -3.814 -8.533 -8.533 -8.533 h -0.085 c -4.71 0 -8.491 3.823 -8.491 8.533 C 256.213 107.11 260.079 110.933 264.789 110.933 z" stroke-linecap="round"/>
</g>
		<g transform="matrix(1 0 0 1 -59.4985 -170.666)" id="Layer_1">
<path style="stroke: none; stroke-width: 1; stroke-dasharray: none; stroke-linecap: butt; stroke-dashoffset: 0; stroke-linejoin: miter; stroke-miterlimit: 4; is-custom-font: none; font-file-url: none; fill: rgb(0,0,0); fill-rule: nonzero; opacity: 1;" transform=" translate(-196.5015, -85.334)" d="M 196.523 93.867 c 4.719 0 8.533 -3.823 8.533 -8.533 s -3.814 -8.533 -8.533 -8.533 h -0.085 c -4.71 0 -8.491 3.823 -8.491 8.533 S 191.812 93.867 196.523 93.867 z" stroke-linecap="round"/>
</g>
		<g transform="matrix(1 0 0 1 59.9675 -187.733)" id="Layer_1">
<path style="stroke: none; stroke-width: 1; stroke-dasharray: none; stroke-linecap: butt; stroke-dashoffset: 0; stroke-linejoin: miter; stroke-miterlimit: 4; is-custom-font: none; font-file-url: none; fill: rgb(0,0,0); fill-rule: nonzero; opacity: 1;" transform=" translate(-315.9675, -68.267)" d="M 315.989 76.8 c 4.719 0 8.533 -3.823 8.533 -8.533 s -3.814 -8.533 -8.533 -8.533 h -0.085 c -4.71 0 -8.491 3.823 -8.491 8.533 S 311.279 76.8 315.989 76.8 z" stroke-linecap="round"/>
</g>
		<g transform="matrix(1 0 0 1 128.2345 -170.666)" id="Layer_1">
<path style="stroke: none; stroke-width: 1; stroke-dasharray: none; stroke-linecap: butt; stroke-dashoffset: 0; stroke-linejoin: miter; stroke-miterlimit: 4; is-custom-font: none; font-file-url: none; fill: rgb(0,0,0); fill-rule: nonzero; opacity: 1;" transform=" translate(-384.2345, -85.334)" d="M 384.256 93.867 c 4.719 0 8.533 -3.823 8.533 -8.533 s -3.814 -8.533 -8.533 -8.533 h -0.085 c -4.71 0 -8.491 3.823 -8.491 8.533 S 379.546 93.867 384.256 93.867 z" stroke-linecap="round"/>
</g>
		<g transform="matrix(1 0 0 1 94.1015 -153.6)" id="Layer_1">
<path style="stroke: none; stroke-width: 1; stroke-dasharray: none; stroke-linecap: butt; stroke-dashoffset: 0; stroke-linejoin: miter; stroke-miterlimit: 4; is-custom-font: none; font-file-url: none; fill: rgb(0,0,0); fill-rule: nonzero; opacity: 1;" transform=" translate(-350.1015, -102.4)" d="M 350.123 110.933 c 4.719 0 8.533 -3.823 8.533 -8.533 c 0 -4.71 -3.814 -8.533 -8.533 -8.533 h -0.085 c -4.71 0 -8.491 3.823 -8.491 8.533 C 341.547 107.11 345.412 110.933 350.123 110.933 z" stroke-linecap="round"/>
</g>
		<g transform="matrix(1 0 0 1 -8.2985 -204.8)" id="Layer_1">
<path style="stroke: none; stroke-width: 1; stroke-dasharray: none; stroke-linecap: butt; stroke-dashoffset: 0; stroke-linejoin: miter; stroke-miterlimit: 4; is-custom-font: none; font-file-url: none; fill: rgb(0,0,0); fill-rule: nonzero; opacity: 1;" transform=" translate(-247.7015, -51.2)" d="M 247.723 59.733 c 4.719 0 8.533 -3.823 8.533 -8.533 c 0 -4.71 -3.814 -8.533 -8.533 -8.533 h -0.085 c -4.71 0 -8.491 3.823 -8.491 8.533 C 239.147 55.91 243.012 59.733 247.723 59.733 z" stroke-linecap="round"/>
</g>
		<g transform="matrix(1 0 0 1 0.0005 204.8)" id="Layer_1">
<path style="stroke: none; stroke-width: 1; stroke-dasharray: none; stroke-linecap: butt; stroke-dashoffset: 0; stroke-linejoin: miter; stroke-miterlimit: 4; is-custom-font: none; font-file-url: none; fill: rgb(0,0,0); fill-rule: nonzero; opacity: 1;" transform=" translate(-256.0005, -460.8)" d="M 469.333 418.133 H 42.667 c -14.114 0 -25.6 11.486 -25.6 25.6 V 460.8 c 0 23.526 19.14 42.667 42.667 42.667 h 392.533 c 23.526 0 42.667 -19.14 42.667 -42.667 v -17.067 C 494.933 429.619 483.456 418.133 469.333 418.133 z M 477.867 460.8 c 0 14.114 -11.477 25.6 -25.6 25.6 H 59.733 c -14.114 0 -25.6 -11.486 -25.6 -25.6 v -17.067 c 0 -4.702 3.831 -8.533 8.533 -8.533 h 426.667 c 4.702 0 8.533 3.831 8.533 8.533 V 460.8 z" stroke-linecap="round"/>
</g>
		<g transform="matrix(1 0 0 1 0 128)" id="Layer_1">
<path style="stroke: none; stroke-width: 1; stroke-dasharray: none; stroke-linecap: butt; stroke-dashoffset: 0; stroke-linejoin: miter; stroke-miterlimit: 4; is-custom-font: none; font-file-url: none; fill: rgb(0,0,0); fill-rule: nonzero; opacity: 1;" transform=" translate(-256, -384)" d="M 40.158 398.575 C 44.245 394.522 57.259 384 68.267 384 c 4.796 0 6.852 1.852 11.034 6.033 c 4.659 4.659 11.034 11.034 23.1 11.034 c 12.066 0 18.449 -6.374 23.1 -11.034 c 4.181 -4.181 6.238 -6.033 11.034 -6.033 c 4.796 0 6.852 1.852 11.034 6.033 c 4.659 4.659 11.034 11.034 23.1 11.034 c 12.066 0 18.449 -6.374 23.1 -11.034 c 4.181 -4.181 6.238 -6.033 11.034 -6.033 c 4.796 0 6.852 1.852 11.034 6.033 c 4.659 4.659 11.034 11.034 23.1 11.034 c 12.066 0 18.449 -6.374 23.1 -11.034 c 4.181 -4.181 6.238 -6.033 11.034 -6.033 c 4.796 0 6.852 1.852 11.034 6.033 c 4.659 4.659 11.034 11.034 23.1 11.034 c 12.066 0 18.449 -6.374 23.1 -11.034 c 4.181 -4.181 6.238 -6.033 11.034 -6.033 s 6.852 1.852 11.034 6.033 c 4.659 4.659 11.034 11.034 23.1 11.034 c 12.066 0 18.449 -6.374 23.1 -11.034 c 4.181 -4.181 6.238 -6.033 11.034 -6.033 s 6.852 1.852 11.034 6.033 c 4.659 4.659 11.034 11.034 23.1 11.034 c 20.028 0 38.17 -17.562 40.166 -19.567 c 3.328 -3.328 3.328 -8.713 0.009 -12.049 s -8.73 -3.354 -12.058 -0.026 C 467.763 373.478 454.741 384 443.733 384 c -4.796 0 -6.852 -1.852 -11.034 -6.033 c -4.651 -4.659 -11.034 -11.034 -23.1 -11.034 c -12.066 0 -18.441 6.374 -23.1 11.034 c -4.181 4.181 -6.238 6.033 -11.034 6.033 s -6.852 -1.852 -11.034 -6.033 c -4.651 -4.659 -11.034 -11.034 -23.1 -11.034 c -12.066 0 -18.441 6.374 -23.1 11.034 c -4.181 4.181 -6.238 6.033 -11.034 6.033 s -6.852 -1.852 -11.034 -6.033 c -4.651 -4.659 -11.034 -11.034 -23.1 -11.034 c -12.066 0 -18.44 6.374 -23.1 11.034 c -4.181 4.181 -6.238 6.033 -11.034 6.033 s -6.852 -1.852 -11.034 -6.033 c -4.651 -4.659 -11.034 -11.034 -23.1 -11.034 c -12.066 0 -18.44 6.374 -23.1 11.034 c -4.181 4.181 -6.238 6.033 -11.034 6.033 c -4.796 0 -6.852 -1.852 -11.034 -6.033 c -4.651 -4.659 -11.034 -11.034 -23.1 -11.034 c -12.066 0 -18.44 6.374 -23.1 11.034 c -4.181 4.181 -6.238 6.033 -11.034 6.033 c -4.796 0 -6.852 -1.852 -11.034 -6.033 c -4.651 -4.659 -11.034 -11.034 -23.1 -11.034 c -20.019 0 -38.161 17.562 -40.166 19.567 c -3.328 3.328 -3.328 8.713 -0.009 12.049 C 31.411 401.877 36.813 401.894 40.158 398.575 z" stroke-linecap="round"/>
</g>
		<g transform="matrix(1 0 0 1 0 59.7335)" id="Layer_1">
<path style="stroke: none; stroke-width: 1; stroke-dasharray: none; stroke-linecap: butt; stroke-dashoffset: 0; stroke-linejoin: miter; stroke-miterlimit: 4; is-custom-font: none; font-file-url: none; fill: rgb(0,0,0); fill-rule: nonzero; opacity: 1;" transform=" translate(-256, -315.7335)" d="M 486.4 281.6 H 221.867 c -4.71 0 -8.533 3.823 -8.533 8.533 s 3.823 8.533 8.533 8.533 H 486.4 c 4.702 0 8.533 3.831 8.533 8.533 v 17.067 c 0 4.702 -3.831 8.533 -8.533 8.533 H 25.6 c -4.702 0 -8.533 -3.831 -8.533 -8.533 V 307.2 c 0 -4.702 3.831 -8.533 8.533 -8.533 h 76.8 c 4.71 0 8.533 -3.823 8.533 -8.533 s -3.823 -8.533 -8.533 -8.533 H 25.6 C 11.486 281.6 0 293.086 0 307.2 v 17.067 c 0 14.114 11.486 25.6 25.6 25.6 h 460.8 c 14.123 0 25.6 -11.486 25.6 -25.6 V 307.2 C 512 293.086 500.523 281.6 486.4 281.6 z" stroke-linecap="round"/>
</g>
		<g transform="matrix(1 0 0 1 0.0005 25.6)" id="Layer_1">
<path style="stroke: none; stroke-width: 1; stroke-dasharray: none; stroke-linecap: butt; stroke-dashoffset: 0; stroke-linejoin: miter; stroke-miterlimit: 4; is-custom-font: none; font-file-url: none; fill: rgb(0,0,0); fill-rule: nonzero; opacity: 1;" transform=" translate(-256.0005, -281.6)" d="M 213.333 247.467 c -2.261 0 -4.429 0.896 -6.033 2.5 l -45.167 45.167 l -45.167 -45.167 c -1.596 -1.604 -3.772 -2.5 -6.033 -2.5 H 42.667 c -4.71 0 -8.533 3.823 -8.533 8.533 c 0 4.71 3.823 8.533 8.533 8.533 h 64.734 l 48.7 48.7 c 1.664 1.664 3.849 2.5 6.033 2.5 c 2.185 0 4.369 -0.836 6.033 -2.5 l 48.7 -48.7 h 252.467 c 4.71 0 8.533 -3.823 8.533 -8.533 c 0 -4.71 -3.823 -8.533 -8.533 -8.533 H 213.333 z" stroke-linecap="round"/>
</g>
		<g transform="matrix(1 0 0 1 -110.6985 -187.733)" id="Layer_1">
<path style="stroke: none; stroke-width: 1; stroke-dasharray: none; stroke-linecap: butt; stroke-dashoffset: 0; stroke-linejoin: miter; stroke-miterlimit: 4; is-custom-font: none; font-file-url: none; fill: rgb(0,0,0); fill-rule: nonzero; opacity: 1;" transform=" translate(-145.3015, -68.267)" d="M 145.323 76.8 c 4.719 0 8.533 -3.823 8.533 -8.533 s -3.814 -8.533 -8.533 -8.533 h -0.085 c -4.71 0 -8.491 3.823 -8.491 8.533 S 140.612 76.8 145.323 76.8 z" stroke-linecap="round"/>
</g>
		<g transform="matrix(1 0 0 1 -0.0065 -136.5335)" id="Layer_1">
<path style="stroke: none; stroke-width: 1; stroke-dasharray: none; stroke-linecap: butt; stroke-dashoffset: 0; stroke-linejoin: miter; stroke-miterlimit: 4; is-custom-font: none; font-file-url: none; fill: rgb(0,0,0); fill-rule: nonzero; opacity: 1;" transform=" translate(-255.9935, -119.4665)" d="M 42.667 230.4 h 426.667 c 14.831 0 25.6 -10.769 25.566 -24.832 c 0.273 -2.944 5.973 -72.815 -45.5 -129.178 C 408.277 31.36 343.211 8.533 256 8.533 S 103.723 31.36 62.609 76.39 C 11.136 132.753 16.836 202.624 17.067 204.8 C 17.067 219.631 27.836 230.4 42.667 230.4 z M 75.204 87.893 C 112.956 46.558 173.781 25.6 256 25.6 c 82.091 0 142.865 20.898 180.634 62.114 c 46.43 50.68 41.327 115.678 41.233 117.086 c 0 5.504 -3.029 8.533 -8.533 8.533 H 42.667 c -5.427 0 -8.533 -3.106 -8.568 -9.301 C 34.039 203.375 28.757 138.761 75.204 87.893 z" stroke-linecap="round"/>
</g>
</g>
</g>
</svg>